<svg xmlns="http://www.w3.org/2000/svg" width="1980" height="1080" viewBox="0 0 1980 1080" font-family="Segoe UI, Helvetica, Arial, sans-serif">
  <defs>
    <marker id="a" markerWidth="9" markerHeight="9" refX="7" refY="3" orient="auto" markerUnits="strokeWidth"><path d="M0,0 L7,3 L0,6 Z" fill="#3A4250"/></marker>
    <marker id="ab" markerWidth="9" markerHeight="9" refX="7" refY="3" orient="auto" markerUnits="strokeWidth"><path d="M0,0 L7,3 L0,6 Z" fill="#0078D4"/></marker>
    <marker id="ag" markerWidth="9" markerHeight="9" refX="7" refY="3" orient="auto" markerUnits="strokeWidth"><path d="M0,0 L7,3 L0,6 Z" fill="#1E7E34"/></marker>
    <marker id="ap" markerWidth="9" markerHeight="9" refX="7" refY="3" orient="auto" markerUnits="strokeWidth"><path d="M0,0 L7,3 L0,6 Z" fill="#7B3FE4"/></marker>
    <filter id="sh" x="-6%" y="-6%" width="112%" height="120%"><feDropShadow dx="0" dy="1.5" stdDeviation="2.5" flood-color="#000000" flood-opacity="0.12"/></filter>
  </defs>

  <rect x="0" y="0" width="1980" height="1080" fill="#FFFFFF"/>
  <text x="40" y="44" font-size="26" font-weight="700" fill="#1A202C">MindSpark Architecture — Revisi (sesuai implementasi)</text>

  <!-- ===== End User + CDN ===== -->
  <circle cx="125" cy="175" r="26" fill="#EDF0F4" stroke="#8A94A6" stroke-width="2"/>
  <path d="M90,235 a35,32 0 0 1 70,0 Z" fill="#EDF0F4" stroke="#8A94A6" stroke-width="2"/>
  <text x="125" y="270" text-anchor="middle" font-size="14" font-weight="600" fill="#2D3748">End User</text>
  <text x="125" y="288" text-anchor="middle" font-size="12" fill="#5A6473">(Browser)</text>

  <rect x="65" y="330" width="120" height="110" rx="10" fill="#F3EEFF" stroke="#7B3FE4" stroke-width="2"/>
  <circle cx="125" cy="378" r="20" fill="none" stroke="#7B3FE4" stroke-width="2.5"/>
  <circle cx="125" cy="378" r="4" fill="#7B3FE4"/><circle cx="108" cy="368" r="3" fill="#7B3FE4"/><circle cx="142" cy="368" r="3" fill="#7B3FE4"/><circle cx="125" cy="398" r="3" fill="#7B3FE4"/>
  <text x="125" y="426" text-anchor="middle" font-size="13.5" font-weight="700" fill="#5B2EB8">CDN</text>
  <line x1="125" y1="245" x2="125" y2="328" stroke="#3A4250" stroke-width="1.8" marker-end="url(#a)"/>
  <line x1="187" y1="385" x2="258" y2="385" stroke="#3A4250" stroke-width="1.8" marker-end="url(#a)"/>
  <text x="200" y="375" font-size="11" fill="#5A6473">Get Content</text>

  <!-- ===== AWS Cloud container ===== -->
  <rect x="220" y="110" width="1240" height="930" rx="6" fill="none" stroke="#ED7100" stroke-width="2.5"/>
  <path d="M243,140 q-10,0 -10,-9 q0,-8 9,-8 q1,-9 11,-9 q8,0 10,7 q9,0 9,9 q0,10 -11,10 Z" fill="#ED7100"/>
  <text x="285" y="138" font-size="16" font-weight="700" fill="#C25E00">AWS Cloud · us-east-1</text>

  <!-- Transit Gateway -->
  <rect x="285" y="520" width="120" height="110" rx="10" fill="#F3EEFF" stroke="#7B3FE4" stroke-width="2"/>
  <circle cx="345" cy="565" r="9" fill="#7B3FE4"/>
  <line x1="345" y1="574" x2="345" y2="592" stroke="#7B3FE4" stroke-width="2"/><circle cx="345" cy="598" r="6" fill="none" stroke="#7B3FE4" stroke-width="2"/>
  <line x1="336" y1="556" x2="320" y2="548" stroke="#7B3FE4" stroke-width="2"/><circle cx="316" cy="546" r="5" fill="none" stroke="#7B3FE4" stroke-width="2"/>
  <line x1="354" y1="556" x2="370" y2="548" stroke="#7B3FE4" stroke-width="2"/><circle cx="374" cy="546" r="5" fill="none" stroke="#7B3FE4" stroke-width="2"/>
  <text x="345" y="650" text-anchor="middle" font-size="12.5" font-weight="700" fill="#5B2EB8">Transit Gateway</text>
  <line x1="405" y1="265" x2="455" y2="265" stroke="#9AA5B1" stroke-width="1.5" stroke-dasharray="5 4"/>
  <line x1="405" y1="545" x2="455" y2="545" stroke="#9AA5B1" stroke-width="1.5" stroke-dasharray="5 4"/>
  <line x1="405" y1="825" x2="455" y2="825" stroke="#9AA5B1" stroke-width="1.5" stroke-dasharray="5 4"/>

  <!-- ============ Frontend VPC ============ -->
  <rect x="460" y="170" width="770" height="180" rx="8" fill="none" stroke="#8C4FFF" stroke-width="2"/>
  <rect x="472" y="182" width="40" height="20" rx="4" fill="#8C4FFF"/><text x="492" y="197" text-anchor="middle" font-size="11" font-weight="700" fill="#fff">VPC</text>
  <text x="845" y="198" text-anchor="middle" font-size="14" font-weight="700" fill="#5B2EB8">Frontend VPC (10.0.0.0/16)</text>

  <rect x="500" y="220" width="300" height="105" rx="8" fill="#FFFFFF" stroke="#D5DBE3" filter="url(#sh)"/>
  <rect x="516" y="240" width="62" height="62" rx="8" fill="#ED7100"/><circle cx="547" cy="263" r="8" fill="#fff"/><circle cx="533" cy="285" r="6" fill="#fff"/><circle cx="561" cy="285" r="6" fill="#fff"/><line x1="547" y1="271" x2="533" y2="279" stroke="#ED7100" stroke-width="2"/><line x1="547" y1="271" x2="561" y2="279" stroke="#ED7100" stroke-width="2"/>
  <text x="690" y="278" text-anchor="middle" font-size="14" font-weight="700" fill="#2D3748">Public ALB</text>

  <rect x="840" y="220" width="350" height="105" rx="8" fill="#FFFFFF" stroke="#E0A800" stroke-width="2" filter="url(#sh)"/>
  <rect x="856" y="240" width="62" height="62" rx="8" fill="#ED7100"/><text x="887" y="280" text-anchor="middle" font-size="26" font-weight="800" fill="#fff">F</text>
  <text x="1058" y="268" text-anchor="middle" font-size="14" font-weight="700" fill="#2D3748">ECS Fargate</text>
  <text x="1058" y="288" text-anchor="middle" font-size="12" fill="#5A6473">Nginx + React build</text>
  <rect x="1140" y="226" width="46" height="18" rx="9" fill="#FFF3CD"/><text x="1163" y="239" text-anchor="middle" font-size="10" font-weight="700" fill="#8A6300">UBAH</text>
  <text x="1000" y="343" font-size="11" fill="#5A6473">REST /api</text>

  <!-- ============ Backend VPC (EKS: backend + ai) ============ -->
  <rect x="460" y="380" width="770" height="340" rx="8" fill="none" stroke="#8C4FFF" stroke-width="2"/>
  <rect x="472" y="392" width="40" height="20" rx="4" fill="#8C4FFF"/><text x="492" y="407" text-anchor="middle" font-size="11" font-weight="700" fill="#fff">VPC</text>
  <text x="845" y="408" text-anchor="middle" font-size="14" font-weight="700" fill="#5B2EB8">Backend VPC (10.1.0.0/16) · EKS Kubernetes — node m7i-flex.large (8 GB)</text>
  <rect x="1148" y="386" width="46" height="18" rx="9" fill="#FFF3CD"/><text x="1171" y="399" text-anchor="middle" font-size="10" font-weight="700" fill="#8A6300">UBAH</text>

  <!-- Internal ALB -->
  <rect x="500" y="425" width="250" height="95" rx="8" fill="#FFFFFF" stroke="#D5DBE3" filter="url(#sh)"/>
  <rect x="514" y="443" width="56" height="56" rx="8" fill="#ED7100"/><path d="M542,455 l12,22 h-24 Z" fill="#fff"/>
  <text x="650" y="478" text-anchor="middle" font-size="13.5" font-weight="700" fill="#2D3748">Internal ALB</text>

  <!-- ns backend -->
  <rect x="770" y="425" width="430" height="95" rx="8" fill="#FFFFFF" stroke="#D5DBE3" filter="url(#sh)"/>
  <rect x="784" y="443" width="56" height="56" rx="8" fill="#2E73B8"/><path d="M812,450 l22,13 v18 l-22,13 l-22,-13 v-18 Z" fill="none" stroke="#fff" stroke-width="2"/><circle cx="812" cy="471" r="5" fill="#fff"/>
  <text x="855" y="462" font-size="13" font-weight="700" fill="#2D3748">EKS · namespace: backend</text>
  <text x="855" y="481" font-size="12" fill="#4A5568">Python REST API (FastAPI)</text>
  <text x="855" y="498" font-size="10.5" fill="#7A8493">auth · materials · quiz · scoring</text>

  <!-- namespace ai sub-container (AI MERGED HERE) -->
  <rect x="500" y="540" width="700" height="160" rx="8" fill="#FBF7FF" stroke="#B79AEE" stroke-dasharray="5 3"/>
  <text x="516" y="560" font-size="12.5" font-weight="700" fill="#7B3FE4">EKS · namespace: ai &#160;&#160;(dulu "AI Service VPC" — kini digabung)</text>

  <rect x="514" y="572" width="215" height="112" rx="8" fill="#FFFFFF" stroke="#D5DBE3" filter="url(#sh)"/>
  <rect x="528" y="590" width="52" height="52" rx="8" fill="#2E73B8"/><path d="M554,597 l20,12 v16 l-20,12 l-20,-12 v-16 Z" fill="none" stroke="#fff" stroke-width="2"/>
  <text x="621" y="612" text-anchor="middle" font-size="12.5" font-weight="700" fill="#2D3748">Python AI Service</text>
  <text x="621" y="630" text-anchor="middle" font-size="11" fill="#4A5568">FastAPI (RAG)</text>

  <rect x="742" y="572" width="215" height="112" rx="8" fill="#FFFFFF" stroke="#D5DBE3" filter="url(#sh)"/>
  <rect x="756" y="590" width="52" height="52" rx="8" fill="#01A88D"/><circle cx="782" cy="612" r="12" fill="none" stroke="#fff" stroke-width="2"/><circle cx="782" cy="612" r="3" fill="#fff"/>
  <text x="849" y="612" text-anchor="middle" font-size="12.5" font-weight="700" fill="#2D3748">Gemini Proxy</text>
  <text x="849" y="630" text-anchor="middle" font-size="11" fill="#4A5568">cache · rate-limit</text>

  <rect x="970" y="572" width="215" height="112" rx="8" fill="#FFFCF2" stroke="#E0A800" stroke-width="2" filter="url(#sh)"/>
  <rect x="984" y="590" width="52" height="52" rx="8" fill="#E0A800"/><circle cx="1000" cy="606" r="3" fill="#fff"/><circle cx="1020" cy="601" r="3" fill="#fff"/><circle cx="1012" cy="623" r="3" fill="#fff"/><circle cx="996" cy="623" r="3" fill="#fff"/>
  <text x="1085" y="606" text-anchor="middle" font-size="12.5" font-weight="700" fill="#8A6300">bge-m3 Embedding</text>
  <text x="1085" y="624" text-anchor="middle" font-size="11" font-weight="700" fill="#8A6300">SELF-HOSTED</text>
  <text x="1085" y="640" text-anchor="middle" font-size="10" fill="#8A6300">RAG vectors</text>

  <!-- ============ Database VPC ============ -->
  <rect x="460" y="750" width="770" height="150" rx="8" fill="none" stroke="#8C4FFF" stroke-width="2"/>
  <rect x="472" y="762" width="40" height="20" rx="4" fill="#8C4FFF"/><text x="492" y="777" text-anchor="middle" font-size="11" font-weight="700" fill="#fff">VPC</text>
  <text x="845" y="778" text-anchor="middle" font-size="14" font-weight="700" fill="#5B2EBF">Database VPC (10.3.0.0/16)</text>

  <rect x="500" y="795" width="690" height="90" rx="8" fill="#FFFFFF" stroke="#D5DBE3" filter="url(#sh)"/>
  <rect x="516" y="810" width="58" height="58" rx="8" fill="#2E73B8"/><ellipse cx="545" cy="826" rx="16" ry="6" fill="none" stroke="#fff" stroke-width="2"/><path d="M529,826 v16 a16,6 0 0 0 32,0 v-16" fill="none" stroke="#fff" stroke-width="2"/>
  <text x="640" y="835" font-size="14" font-weight="700" fill="#2D3748">Amazon RDS — PostgreSQL 16 + pgvector</text>
  <text x="640" y="856" font-size="11.5" fill="#7A8493">private · no internet · Database VPC (RDS)</text>

  <!-- ============ internal edges ============ -->
  <line x1="800" y1="272" x2="838" y2="272" stroke="#3A4250" stroke-width="1.8" marker-end="url(#a)"/>
  <path d="M1015,325 C 1015,360 760,360 700,423" fill="none" stroke="#3A4250" stroke-width="1.8" marker-end="url(#a)"/>
  <line x1="750" y1="472" x2="768" y2="472" stroke="#3A4250" stroke-width="1.8" marker-end="url(#a)"/>
  <path d="M650,520 C 650,540 680,548 700,570" fill="none" stroke="#3A4250" stroke-width="1.6" marker-end="url(#a)"/>
  <text x="640" y="540" font-size="10.5" fill="#5A6473">AI request</text>
  <!-- backend/ai -> RDS -->
  <path d="M900,684 C 900,720 845,740 845,793" fill="none" stroke="#2E73B8" stroke-width="1.8" marker-end="url(#ab)"/>
  <rect x="858" y="726" width="80" height="16" rx="4" fill="#fff"/><text x="898" y="738" text-anchor="middle" font-size="10" fill="#2E73B8">SQL · pgvector</text>

  <!-- ============ CI/CD chain (right-top) ============ -->
  <circle cx="1890" cy="225" r="24" fill="#EDF0F4" stroke="#8A94A6" stroke-width="2"/><path d="M1858,283 a32,30 0 0 1 64,0 Z" fill="#EDF0F4" stroke="#8A94A6" stroke-width="2"/>
  <text x="1890" y="312" text-anchor="middle" font-size="12.5" font-weight="600" fill="#2D3748">Developer</text>

  <circle cx="1760" cy="240" r="34" fill="#1B1F23"/><circle cx="1760" cy="234" r="14" fill="none" stroke="#fff" stroke-width="3"/><rect x="1756" y="246" width="8" height="14" fill="#fff"/>
  <text x="1760" y="300" text-anchor="middle" font-size="12.5" font-weight="600" fill="#2D3748">GitHub</text>

  <rect x="1600" y="206" width="72" height="68" rx="8" fill="#1D91E0"/><rect x="1614" y="234" width="10" height="10" fill="#fff"/><rect x="1628" y="234" width="10" height="10" fill="#fff"/><rect x="1642" y="234" width="10" height="10" fill="#fff"/><rect x="1628" y="222" width="10" height="10" fill="#fff"/><path d="M1610,250 q30,18 56,0" fill="none" stroke="#fff" stroke-width="3"/>
  <text x="1636" y="300" text-anchor="middle" font-size="12.5" font-weight="600" fill="#2D3748">Docker</text>

  <rect x="1490" y="206" width="72" height="68" rx="8" fill="#ED7100"/><path d="M1500,228 l26,-12 l26,12 v22 l-26,12 l-26,-12 Z" fill="none" stroke="#fff" stroke-width="2.5"/>
  <text x="1526" y="300" text-anchor="middle" font-size="12.5" font-weight="600" fill="#2D3748">ECR</text>

  <line x1="1856" y1="240" x2="1798" y2="240" stroke="#3A4250" stroke-width="1.6" marker-end="url(#a)"/><text x="1810" y="232" text-anchor="middle" font-size="9.5" fill="#5A6473">Git Push</text>
  <line x1="1724" y1="240" x2="1676" y2="240" stroke="#3A4250" stroke-width="1.6" marker-end="url(#a)"/><text x="1700" y="232" text-anchor="middle" font-size="9.5" fill="#5A6473">Build</text>
  <line x1="1598" y1="240" x2="1566" y2="240" stroke="#3A4250" stroke-width="1.6" marker-end="url(#a)"/>
  <!-- ECR -> deploy into AWS -->
  <path d="M1490,255 C 1300,300 1260,255 1192,268" fill="none" stroke="#3A4250" stroke-width="1.8" stroke-dasharray="6 4" marker-end="url(#a)"/>
  <path d="M1490,262 C 1320,420 1280,470 1202,472" fill="none" stroke="#3A4250" stroke-width="1.8" stroke-dasharray="6 4" marker-end="url(#a)"/>
  <text x="1320" y="300" font-size="10.5" fill="#5A6473">Docker Push → Deploy</text>

  <!-- ============ Azure ============ -->
  <rect x="1500" y="360" width="450" height="250" rx="8" fill="none" stroke="#0078D4" stroke-width="2" stroke-dasharray="6 4"/>
  <text x="1725" y="386" text-anchor="middle" font-size="15" font-weight="700" fill="#0078D4">Azure</text>
  <rect x="1540" y="410" width="370" height="170" rx="10" fill="#EAF4FE" stroke="#0078D4" stroke-width="1.5" filter="url(#sh)"/>
  <rect x="1560" y="440" width="70" height="70" rx="8" fill="#0078D4"/><text x="1595" y="470" text-anchor="middle" font-size="15" font-weight="800" fill="#fff">10</text><text x="1595" y="492" text-anchor="middle" font-size="15" font-weight="800" fill="#fff">01</text>
  <text x="1660" y="455" font-size="14" font-weight="700" fill="#1A4E8A">Azure Blob Storage</text>
  <text x="1660" y="476" font-size="11.5" fill="#4A5568">VNet + Private Endpoint</text>
  <text x="1660" y="494" font-size="11.5" fill="#4A5568">("Storage VPC")</text>
  <text x="1660" y="512" font-size="11" fill="#4A5568">uploads · PDF · processed docs</text>
  <rect x="1560" y="530" width="330" height="30" rx="6" fill="#fff" stroke="#B6D9F7"/><text x="1725" y="550" text-anchor="middle" font-size="10.5" fill="#1A4E8A">MULTI-CLOUD · kode diubah GCS → Azure</text>

  <!-- ============ Gemini ============ -->
  <rect x="1500" y="650" width="450" height="200" rx="8" fill="none" stroke="#34A853" stroke-width="2" stroke-dasharray="6 4"/>
  <text x="1725" y="676" text-anchor="middle" font-size="15" font-weight="700" fill="#1E7E34">Google Cloud</text>
  <rect x="1540" y="700" width="370" height="125" rx="10" fill="#EAF5EC" stroke="#34A853" stroke-width="1.5" filter="url(#sh)"/>
  <path d="M1600,742 l9,-22 l9,22 l22,9 l-22,9 l-9,22 l-9,-22 l-22,-9 Z" fill="#4285F4"/>
  <text x="1730" y="752" text-anchor="middle" font-size="14" font-weight="700" fill="#1E7E34">Gemini API</text>
  <text x="1730" y="773" font-size="11.5" fill="#4A5568" text-anchor="middle">LLM generation — multimodal,</text>
  <text x="1730" y="790" font-size="11.5" fill="#4A5568" text-anchor="middle">JSON terstruktur, long-context</text>

  <!-- cross-cloud edges -->
  <path d="M1200,600 C 1360,600 1380,495 1538,495" fill="none" stroke="#0078D4" stroke-width="1.8" marker-end="url(#ab)"/>
  <rect x="1300" y="556" width="150" height="16" rx="4" fill="#fff"/><text x="1375" y="568" text-anchor="middle" font-size="10" fill="#0078D4">object PUT/GET · fetch doc</text>
  <path d="M1185,628 C 1360,690 1390,748 1538,748" fill="none" stroke="#1E7E34" stroke-width="1.8" marker-end="url(#ag)"/>
  <rect x="1320" y="700" width="120" height="16" rx="4" fill="#fff"/><text x="1380" y="712" text-anchor="middle" font-size="10" fill="#1E7E34">Gemini API (NAT)</text>
</svg>
